#!OML:ASF E:\Steps\Project 1\Capture day 1\Session 2\Subject.ASF
:FULLY-SPECIFIED
:DEGREES
20
root -1.32178 17.9814 20.8156 -153.982 -1.00249 177.984
lowerback -26.3785 -2.22913 -6.04466
upperback -1.9586 -1.74047 -0.0775191
thorax 12.6984 -1.39046 2.69992
lowerneck -1.14168 -3.58565 -1.13258
upperneck 5.46365 -4.85712 4.30693
head 2.06 -2.29214 1.45095
rclavicle -3.8266e-015 5.36719e-015
rhumerus -42.1827 -18.2665 -75.2405
rradius 32.3945
rwrist -2.142
rhand -7.50226 -53.4045
rfingers 7.12502
rthumb 18.3877 -82.5554
lclavicle -3.8266e-015 5.36719e-015
lhumerus -33.7883 10.8249 75.5639
lradius 17.6416
lwrist -8.57468
lhand -21.2421 -11.2435
lfingers 7.12502
lthumb 5.14062 18.6742
rfemur -25.525 5.22328 19.87
rtibia 9.512
rfoot -18.5381 -4.25708
rtoes -23.9291
lfemur -24.6645 -6.83845 -23.143
ltibia 8.44583
lfoot -6.36768 -5.955
ltoes -25.9626
21
root -1.32475 17.98 20.8144 -153.946 -0.94912 178.06
lowerback -26.4489 -2.20979 -5.96364
upperback -1.96188 -1.73916 -0.0541259
thorax 12.731 -1.38751 2.67905
lowerneck -1.11639 -3.5789 -1.22258
upperneck 5.40125 -4.84899 4.40532
head 2.04109 -2.28914 1.49901
rclavicle -9.44227e-016 -3.97569e-015
rhumerus -42.1313 -18.1405 -75.288
rradius 32.6867
rwrist -2.65461
rhand -6.99287 -54.1946
rfingers 7.12502
rthumb 18.8777 -83.2986
lclavicle -9.44227e-016 -3.97569e-015
lhumerus -33.6714 10.5498 75.8822
lradius 17.9594
lwrist -8.23092
lhand -21.3585 -11.044
lfingers 7.12502
lthumb 5.02822 18.8764
rfemur -25.7266 6.2412 19.708
rtibia 9.83807
rfoot -18.7188 -5.30745
rtoes -24.3121
lfemur -24.6938 -6.91008 -23.0352
ltibia 8.42102
lfoot -6.37208 -5.85075
ltoes -25.3213
22
root -1.32796 17.9779 20.8138 -153.904 -0.898479 178.118
lowerback -26.4913 -2.20974 -5.88792
upperback -1.95245 -1.75891 -0.047591
thorax 12.7649 -1.39322 2.63454
lowerneck -1.15161 -3.55705 -1.29307
upperneck 5.31364 -4.82343 4.55169
head 2.02525 -2.27581 1.5588
rclavicle 1.14798e-014 2.28602e-014
rhumerus -42.0642 -17.9116 -75.446
rradius 32.8198
rwrist -2.79007
rhand -6.95707 -54.0598
rfingers 7.12502
rthumb 18.9121 -83.1604
lclavicle 1.14798e-014 2.28602e-014
lhumerus -33.5492 10.4321 76.0789
lradius 18.2702
lwrist -8.0879
lhand -21.1971 -11.3308
lfingers 7.12502
lthumb 5.18406 18.5858
rfemur -25.5101 5.97555 19.8114
rtibia 9.27268
rfoot -18.3679 -4.99554
rtoes -24.5717
lfemur -24.7352 -6.95638 -22.9579
ltibia 8.39996
lfoot -6.36735 -5.7615
ltoes -24.7713
23
root -1.33012 17.9778 20.8132 -153.908 -0.849098 178.121
lowerback -26.3976 -2.22515 -5.88778
upperback -1.98642 -1.79014 -0.0438199
thorax 12.6777 -1.4063 2.62969
lowerneck -1.08626 -3.58587 -1.25386
upperneck 5.23706 -4.85993 4.5091
head 1.9871 -2.29689 1.53844
rclavicle 1.83876e-015 -7.15625e-015
rhumerus -42.0737 -17.524 -75.726
rradius 32.9544
rwrist -2.6722
rhand -7.18926 -54.8139
rfingers 7.12502
rthumb 18.6888 -83.9361
lclavicle 1.83876e-015 -7.15625e-015
lhumerus -33.5528 10.0756 76.364
lradius 18.7024
lwrist -7.71905
lhand -20.9718 -11.6104
lfingers 7.12502
lthumb 5.40157 18.3007
rfemur -25.4241 5.78602 19.8485
rtibia 9.10472
rfoot -18.2138 -4.74338
rtoes -24.8356
lfemur -24.7279 -6.91143 -22.9827
ltibia 8.40393
lfoot -6.33887 -5.75639
ltoes -24.5413
24
root -1.33226 17.9776 20.8124 -153.928 -0.807187 178.101
lowerback -26.2721 -2.23672 -5.92872
upperback -2.05481 -1.81152 -0.0470176
thorax 12.5328 -1.41705 2.64527
lowerneck -0.898504 -3.64107 -1.23489
upperneck 5.115 -4.92927 4.49608
head 1.91518 -2.33562 1.53249
rclavicle 4.77083e-015 5.76476e-015
rhumerus -42.1624 -17.4118 -75.8276
rradius 33.1042
rwrist -2.606
rhand -7.25852 -55.531
rfingers 7.12502
rthumb 18.6222 -84.6597
lclavicle 4.77083e-015 5.76476e-015
lhumerus -33.561 9.75414 76.6084
lradius 19.0216
lwrist -7.36237
lhand -20.9375 -11.7433
lfingers 7.12502
lthumb 5.43472 18.1671
rfemur -25.4491 5.9477 19.7761
rtibia 9.20816
rfoot -18.1732 -4.89812
rtoes -25.4341
lfemur -24.7029 -6.84228 -23.0455
ltibia 8.42951
lfoot -6.38838 -5.79866
ltoes -24.6546
25
root -1.33408 17.9764 20.8116 -153.914 -0.79594 178.066
lowerback -26.2706 -2.27909 -6.02165
upperback -2.06548 -1.84445 -0.0297013
thorax 12.5259 -1.4383 2.70641
lowerneck -0.750694 -3.65777 -1.32771
upperneck 4.94266 -4.95014 4.63282
head 1.84151 -2.34962 1.59502
rclavicle -5.06901e-015 5.96354e-016
rhumerus -42.1799 -17.5227 -75.7747
rradius 33.0995
rwrist -2.32287
rhand -7.66634 -54.5431
rfingers 7.12502
rthumb 18.2299 -83.7089
lclavicle -5.06901e-015 5.96354e-016
lhumerus -33.4102 9.5064 76.886
lradius 19.2593
lwrist -7.12661
lhand -21.0522 -11.635
lfingers 7.12502
lthumb 5.32397 18.2781
rfemur -25.5085 6.14391 19.6754
rtibia 9.30758
rfoot -18.2256 -5.05267
rtoes -25.3479
lfemur -24.7148 -6.82816 -23.1022
ltibia 8.44987
lfoot -6.44976 -5.81144
ltoes -24.8613
26
root -1.336 17.9765 20.8111 -153.912 -0.804799 178.055
lowerback -26.2768 -2.32815 -6.10749
upperback -2.05681 -1.88648 0.0129476
thorax 12.5476 -1.46365 2.78882
lowerneck -0.723939 -3.63686 -1.36756
upperneck 4.93102 -4.92168 4.65337
head 1.83403 -2.33627 1.60966
rclavicle 6.70898e-015 -1.0138e-014
rhumerus -42.1388 -17.4615 -75.793
rradius 33.0746
rwrist -2.09332
rhand -8.13075 -53.0668
rfingers 7.12502
rthumb 17.783 -82.2737
lclavicle 6.70898e-015 -1.0138e-014
lhumerus -33.2885 9.08465 77.2943
lradius 19.6521
lwrist -6.77227
lhand -21.1405 -11.519
lfingers 7.12502
lthumb 5.23865 18.3962
rfemur -25.5104 6.21665 19.64
rtibia 9.31626
rfoot -18.2757 -5.1025
rtoes -25.0344
lfemur -24.7159 -6.83195 -23.1178
ltibia 8.44818
lfoot -6.38406 -5.83208
ltoes -24.2777
27
root -1.33947 17.9777 20.8106 -153.929 -0.801282 178.091
lowerback -26.2431 -2.32737 -6.11285
upperback -2.07273 -1.89015 0.0309458
thorax 12.512 -1.46556 2.8122
lowerneck -0.903319 -3.67201 -1.14266
upperneck 5.26432 -4.96862 4.35163
head 1.95784 -2.35326 1.46863
rclavicle -1.55052e-014 -2.56432e-014
rhumerus -42.1536 -17.2835 -75.9107
rradius 33.1778
rwrist -2.19177
rhand -8.18122 -52.6945
rfingers 7.12502
rthumb 17.7345 -81.9058
lclavicle -1.55052e-014 -2.56432e-014
lhumerus -33.2305 8.64084 77.6505
lradius 20.0674
lwrist -6.36519
lhand -21.1769 -11.6432
lfingers 7.12502
lthumb 5.20357 18.2729
rfemur -25.4735 6.09703 19.7067
rtibia 9.28355
rfoot -18.2566 -4.99568
rtoes -25.0558
lfemur -24.6946 -6.83052 -23.0872
ltibia 8.44442
lfoot -6.31991 -5.81549
ltoes -23.8612
28
root -1.34305 17.9789 20.8086 -153.935 -0.801001 178.113
lowerback -26.2502 -2.30914 -6.08186
upperback -2.05373 -1.86778 -0.00384138
thorax 12.5337 -1.45247 2.76241
lowerneck -1.12044 -3.78155 -0.834973
upperneck 5.55335 -5.11615 4.03179
head 2.07392 -2.42015 1.30488
rclavicle -1.64494e-014 -1.17283e-014
rhumerus -42.1093 -17.1396 -76.1256
rradius 33.3414
rwrist -2.42865
rhand -8.12832 -53.4696
rfingers 7.12502
rthumb 17.7854 -82.6763
lclavicle -1.64494e-014 -1.17283e-014
lhumerus -33.0957 8.17462 77.9604
lradius 20.5043
lwrist -5.89327
lhand -21.3382 -11.774
lfingers 7.12502
lthumb 5.04782 18.1459
rfemur -25.4389 5.89001 19.7775
rtibia 9.24655
rfoot -18.2524 -4.80825
rtoes -25.0626
lfemur -24.6775 -6.83535 -23.0807
ltibia 8.44725
lfoot -6.31776 -5.79305
ltoes -23.9188
29
root -1.3465 17.9799 20.808 -153.932 -0.815781 178.084
lowerback -26.2513 -2.31909 -6.08417
upperback -2.0291 -1.87148 -0.0439725
thorax 12.5622 -1.45294 2.71604
lowerneck -1.11951 -3.88885 -0.699065
upperneck 5.58327 -5.25815 3.89705
head 2.07807 -2.49101 1.23485
rclavicle -1.28216e-014 -4.37326e-015
rhumerus -42.0752 -16.9867 -76.3187
rradius 33.5913
rwrist -2.71139
rhand -8.15663 -54.1741
rfingers 7.12502
rthumb 17.7581 -83.3832
lclavicle -1.28216e-014 -4.37326e-015
lhumerus -32.9264 7.78793 78.2557
lradius 20.936
lwrist -5.53934
lhand -21.5565 -11.8245
lfingers 7.12502
lthumb 4.83705 18.1003
rfemur -25.4288 5.89958 19.732
rtibia 9.2345
rfoot -18.3232 -4.85966
rtoes -24.9464
lfemur -24.6873 -6.83394 -23.1432
ltibia 8.48016
lfoot -6.34199 -5.83365
ltoes -24.756
30
root -1.34907 17.9804 20.8094 -153.913 -0.827024 178.047
lowerback -26.2375 -2.35234 -6.12844
upperback -2.04197 -1.90568 -0.0430916
thorax 12.5443 -1.47124 2.73025
lowerneck -0.905954 -3.93486 -0.829798
upperneck 5.38306 -5.31741 4.06376
head 1.98671 -2.52507 1.3138
rclavicle -1.68967e-015 6.75868e-015
rhumerus -42.1408 -16.7962 -76.4086
rradius 33.8796
rwrist -2.97549
rhand -7.97648 -54.0398
rfingers 7.12502
rthumb 17.9315 -83.2332
lclavicle -1.68967e-015 6.75868e-015
lhumerus -32.8055 7.56436 78.5185
lradius 21.3368
lwrist -5.40195
lhand -21.651 -11.7092
lfingers 7.12502
lthumb 4.74575 18.2176
rfemur -25.437 5.95286 19.6652
rtibia 9.20727
rfoot -18.3645 -4.87448
rtoes -24.4255
lfemur -24.7257 -6.8332 -23.207
ltibia 8.51867
lfoot -6.38659 -5.85872
ltoes -25.6359
